<?xml version="1.0" encoding="UTF-8" standalone="no"?>
<!-- Created with Inkscape (http://www.inkscape.org/) -->

<svg
   xmlns:dc="http://purl.org/dc/elements/1.1/"
   xmlns:cc="http://creativecommons.org/ns#"
   xmlns:rdf="http://www.w3.org/1999/02/22-rdf-syntax-ns#"
   xmlns:svg="http://www.w3.org/2000/svg"
   xmlns="http://www.w3.org/2000/svg"
   xmlns:sodipodi="http://sodipodi.sourceforge.net/DTD/sodipodi-0.dtd"
   xmlns:inkscape="http://www.inkscape.org/namespaces/inkscape"
   version="1.1"
   id="svg2"
   xml:space="preserve"
   width="9.5in"
   height="4.25in"
   viewBox="0 0 912 408"
   sodipodi:docname="swipe.svg"
   inkscape:version="0.92.3 (2405546, 2018-03-11)"><metadata
     id="metadata8"><rdf:RDF><cc:Work
         rdf:about=""><dc:format>image/svg+xml</dc:format><dc:type
           rdf:resource="http://purl.org/dc/dcmitype/StillImage" /><dc:title></dc:title></cc:Work></rdf:RDF></metadata><defs
     id="defs6"><clipPath
       clipPathUnits="userSpaceOnUse"
       id="clipPath18"><path
         d="M 0,1080 H 1080 V 0 H 0 Z"
         id="path16"
         inkscape:connector-curvature="0" /></clipPath></defs><sodipodi:namedview
     pagecolor="#ffffff"
     bordercolor="#666666"
     borderopacity="1"
     objecttolerance="10"
     gridtolerance="10"
     guidetolerance="10"
     inkscape:pageopacity="0"
     inkscape:pageshadow="2"
     inkscape:window-width="1366"
     inkscape:window-height="737"
     id="namedview4"
     showgrid="false"
     inkscape:zoom="0.16388889"
     inkscape:cx="720"
     inkscape:cy="720"
     inkscape:window-x="0"
     inkscape:window-y="0"
     inkscape:window-maximized="1"
     inkscape:current-layer="g10"
     units="in"
     width="9.5in" /><g
     id="g10"
     inkscape:groupmode="layer"
     inkscape:label="swipe"
     transform="matrix(1.3333333,0,0,-1.3333333,0,408)"><g
       id="g12"
       transform="translate(-193.70339,-396.33052)"><g
         id="g14"
         clip-path="url(#clipPath18)"><g
           id="g20"
           transform="translate(655.7666,467.6772)"><path
             d="m 0,0 v -2.844 c 2.134,3.555 6.489,6.133 12.533,6.133 6.222,0 10.132,-2.756 11.999,-7.556 2.311,4.534 7.111,7.556 13.51,7.556 4.711,0 8.444,-1.689 10.755,-5.067 1.688,-2.489 2.577,-6.044 2.577,-10.576 v -21.599 c 0,-2.045 -1.155,-3.111 -3.644,-3.111 -2.578,0 -3.822,1.066 -3.822,3.111 v 20.443 c 0,2.666 -0.355,5.333 -1.688,7.199 -1.422,2.044 -3.734,3.022 -6.844,3.022 -4.355,0 -7.645,-2.044 -9.511,-5.066 v -25.598 c 0,-2.045 -1.155,-3.111 -3.644,-3.111 -2.577,0 -3.822,1.066 -3.822,3.111 v 21.065 c 0,2.666 -0.533,4.888 -1.689,6.577 -1.422,2.044 -3.732,3.022 -6.844,3.022 -4.355,0 -7.732,-2.133 -9.511,-5.066 v -25.598 c 0,-2.045 -1.155,-3.111 -3.643,-3.111 -2.578,0 -3.822,1.066 -3.822,3.111 L -7.11,0 c 0,2.044 1.155,3.111 3.644,3.111 C -0.889,3.111 0.089,1.867 0,0"
             style="fill:#303d47;fill-opacity:1;fill-rule:nonzero;stroke:none"
             id="path22"
             inkscape:connector-curvature="0" /></g><g
           id="g24"
           transform="translate(724.2041,454.167)"><path
             d="m 0,0 h 19.909 c 0,6.488 -3.377,11.11 -9.687,11.11 C 4.355,11.11 0.711,6.933 0,0 m 26.398,-16.977 c 0,-1.244 -0.8,-2.311 -2.578,-3.466 -3.288,-2.222 -7.377,-3.377 -12.265,-3.377 -11.91,0 -19.021,7.732 -19.021,20.265 0,12.443 6.933,20.62 17.865,20.62 10.222,0 16.799,-7.377 16.799,-17.42 0,-4.711 -1.689,-5.245 -4.622,-5.245 H -0.089 c 0.711,-7.288 4.533,-11.821 11.999,-11.821 2.934,0 5.777,0.622 8.177,2.222 1.334,0.889 2.223,1.511 3.111,1.511 2.133,0 3.2,-1.866 3.2,-3.289"
             style="fill:#303d47;fill-opacity:1;fill-rule:nonzero;stroke:none"
             id="path26"
             inkscape:connector-curvature="0" /></g><g
           id="g28"
           transform="translate(779.042,464.833)"><path
             d="m 0,0 c -7.555,0 -12.354,-5.333 -12.354,-14.043 0,-8.889 4.71,-14.222 11.91,-14.222 3.289,0 6.221,1.156 8.711,3.378 v 22.22 C 5.955,-0.889 3.111,0 0,0 m -0.8,6.133 c 3.556,0 6.666,-0.8 9.067,-2.489 V 23.82 c 0,2.045 1.155,3.111 3.643,3.111 2.578,0 3.822,-1.066 3.822,-3.111 v -54.929 c 0,-2.133 -1.244,-3.111 -3.644,-3.111 -2.4,0 -3.377,0.889 -3.377,2.578 v 1.866 c -2.756,-3.111 -6.577,-4.621 -11.199,-4.621 -10.222,0 -17.599,7.643 -17.599,19.998 0,12.532 7.644,20.532 19.287,20.532"
             style="fill:#303d47;fill-opacity:1;fill-rule:nonzero;stroke:none"
             id="path30"
             inkscape:connector-curvature="0" /></g><g
           id="g32"
           transform="translate(815.0371,433.7241)"><path
             d="m 0,0 c 0,-2.044 -1.155,-3.111 -3.644,-3.111 -2.578,0 -3.822,1.067 -3.822,3.111 v 33.953 c 0,2.045 1.155,3.111 3.645,3.111 2.577,0 3.821,-1.066 3.821,-3.111 z m -3.732,45.241 c -2.845,0 -4.889,2.045 -4.889,4.889 0,2.755 2.044,4.799 4.889,4.799 2.843,0 4.888,-2.044 4.888,-4.799 0,-2.844 -2.045,-4.889 -4.888,-4.889"
             style="fill:#303d47;fill-opacity:1;fill-rule:nonzero;stroke:none"
             id="path34"
             inkscape:connector-curvature="0" /></g><g
           id="g36"
           transform="translate(832.8135,442.0791)"><path
             d="m 0,0 c 0,-3.111 2.133,-5.511 7.11,-5.511 3.201,0 6.311,1.156 9.067,3.467 V 8.177 C 5.066,6.933 0,4.889 0,0 m 8.088,22.665 c -3.022,0 -5.511,-0.8 -7.999,-2.222 -1.422,-0.8 -2.133,-1.422 -3.111,-1.422 -1.956,0 -3.022,2.044 -3.022,3.555 0,1.067 0.8,2.133 2.666,3.289 3.378,2.044 7.556,3.111 12.178,3.111 5.688,0 9.954,-1.601 12.265,-4.8 1.689,-2.133 2.4,-5.333 2.4,-9.688 V -8.266 c 0,-2.133 -0.889,-3.2 -3.556,-3.2 -2.222,0 -3.288,0.711 -3.288,2.4 v 2.133 c -2.933,-3.111 -6.933,-4.711 -11.91,-4.711 -8,0 -12.621,4.444 -12.621,11.111 0,8.088 7.021,12.354 24.087,13.688 v 1.155 c 0,5.511 -2.223,8.355 -8.089,8.355"
             style="fill:#303d47;fill-opacity:1;fill-rule:nonzero;stroke:none"
             id="path38"
             inkscape:connector-curvature="0" /></g><g
           id="g40"
           transform="translate(225.0571,598.1758)"><path
             d="m 0,0 c 0,21.403 16.854,36.921 47.888,36.921 15.785,0 27.289,-3.478 36.653,-8.829 6.155,-3.478 9.632,-7.491 9.632,-12.842 0,-6.689 -5.35,-16.587 -14.179,-16.587 -2.676,0 -5.083,1.069 -11.238,3.745 -8.828,3.746 -16.051,5.886 -22.74,5.886 -7.223,0 -11.771,-2.675 -11.771,-7.491 0,-16.588 62.068,-9.632 62.068,-51.635 0,-22.741 -17.657,-37.188 -48.959,-37.188 -16.053,0 -27.29,3.21 -38.525,9.899 -6.422,3.746 -9.901,8.026 -9.901,13.644 0,6.153 4.817,16.587 14.449,16.587 3.477,0 6.687,-1.605 10.701,-3.745 8.294,-4.28 15.25,-7.758 24.613,-7.758 8.026,0 13.378,2.675 13.378,8.025 C 62.069,-33.978 0,-41.201 0,0"
             style="fill:#f03281;fill-opacity:1;fill-rule:nonzero;stroke:none"
             id="path42"
             inkscape:connector-curvature="0" /></g><g
           id="g44"
           transform="translate(399.2261,528.3486)"><path
             d="m 0,0 c -4.014,-12.04 -9.632,-17.658 -23.543,-17.658 -14.179,0 -19.531,5.886 -23.01,18.193 l -22.74,83.204 c -0.801,3.478 -1.873,8.294 -1.873,11.237 0,5.618 3.479,11.237 17.391,11.237 12.842,0 16.854,-4.548 19.262,-15.25 L -19.53,24.079 -0.803,85.344 c 3.211,10.702 8.294,17.123 21.939,17.123 13.912,0 18.995,-6.956 21.938,-16.854 L 60.731,24.079 76.784,90.963 c 2.676,10.969 6.421,15.25 18.46,15.25 13.378,0 17.123,-5.619 17.123,-11.237 0,-3.21 -1.07,-7.759 -1.873,-11.237 L 85.613,0.268 C 81.867,-12.04 76.516,-17.658 62.604,-17.658 48.692,-17.658 43.074,-12.04 39.328,0 L 20.065,60.196 Z"
             style="fill:#f03281;fill-opacity:1;fill-rule:nonzero;stroke:none"
             id="path46"
             inkscape:connector-curvature="0" /></g><g
           id="g48"
           transform="translate(561.6284,525.1382)"><path
             d="m 0,0 c 0,-9.632 -5.885,-14.448 -17.924,-14.448 -12.039,0 -17.926,4.816 -17.926,14.448 v 94.976 c 0,9.632 5.887,14.447 17.926,14.447 C -5.885,109.423 0,104.608 0,94.976 Z m -17.924,123.87 c -12.307,0 -21.136,8.562 -21.136,20.868 0,12.307 8.829,20.601 21.136,20.601 12.306,0 21.134,-8.294 21.134,-20.601 0,-12.306 -8.828,-20.868 -21.134,-20.868"
             style="fill:#f03281;fill-opacity:1;fill-rule:nonzero;stroke:none"
             id="path50"
             inkscape:connector-curvature="0" /></g><g
           id="g52"
           transform="translate(636.5435,539.585)"><path
             d="m 0,0 c 17.657,0 28.358,11.504 28.358,32.64 0,21.671 -10.967,33.71 -27.555,33.71 -6.421,0 -12.039,-1.873 -16.856,-5.618 V 4.281 C -11.504,1.338 -5.887,0 0,0 m -16.053,-65.012 c 0,-9.632 -5.884,-14.447 -17.924,-14.447 -12.039,0 -17.925,4.815 -17.925,14.447 V 80.529 c 0,9.899 5.886,14.448 17.657,14.448 10.97,0 15.785,-4.281 15.785,-11.237 v -1.606 c 6.956,8.562 17.39,12.843 30.768,12.843 29.428,0 52.705,-21.938 52.705,-60.465 0,-39.328 -23.812,-63.674 -59.93,-63.674 -8.56,0 -16.053,1.605 -21.136,4.549 z"
             style="fill:#f03281;fill-opacity:1;fill-rule:nonzero;stroke:none"
             id="path54"
             inkscape:connector-curvature="0" /></g><g
           id="g56"
           transform="translate(745.9697,585.3345)"><path
             d="m 0,0 h 44.946 c 0,12.841 -6.687,23.008 -21.669,23.008 C 9.9,23.008 2.141,14.982 0,0 m 75.714,-53.24 c 0,-6.422 -4.28,-9.632 -9.363,-12.843 -9.365,-5.885 -22.206,-9.363 -38.259,-9.363 -39.863,0 -62.337,23.008 -62.337,62.069 0,38.793 22.206,63.674 58.057,63.674 35.314,0 55.113,-24.346 55.113,-52.706 0,-18.727 -9.097,-20.867 -20.333,-20.867 H 0.269 c 2.941,-14.983 12.039,-23.009 28.627,-23.009 8.56,0 15.516,2.408 21.937,5.618 4.28,2.141 7.224,3.479 10.435,3.479 8.56,0 14.446,-8.829 14.446,-16.052"
             style="fill:#f03281;fill-opacity:1;fill-rule:nonzero;stroke:none"
             id="path58"
             inkscape:connector-curvature="0" /></g><g
           id="g60"
           transform="translate(303.5811,445.3965)"><path
             d="m 0,0 c -25.385,5.59 -50.266,13.531 -74.437,23.773 -4.52,1.915 -6.631,7.132 -4.716,11.652 1.916,4.52 7.139,6.629 11.653,4.717 42.166,-17.87 86.592,-28.429 132.046,-31.387 54.965,-3.576 109.365,3.962 161.688,22.406 4.632,1.633 9.707,-0.799 11.338,-5.427 1.633,-4.63 -0.798,-9.706 -5.427,-11.338 C 177.543,-4.852 120.767,-12.717 63.392,-8.983 42.004,-7.592 20.832,-4.587 0,0"
             style="fill:#8c8b7e;fill-opacity:1;fill-rule:nonzero;stroke:none"
             id="path62"
             inkscape:connector-curvature="0" /></g><g
           id="g64"
           transform="translate(533.5864,431.2441)"><path
             d="m 0,0 c -0.946,0.208 -1.869,0.592 -2.723,1.163 -3.673,2.454 -4.66,7.422 -2.205,11.096 5.349,8.029 12.686,22.795 11.707,29.375 -2.405,3.559 -18.811,7.984 -34.092,9.166 -4.393,0.334 -7.699,4.187 -7.359,8.593 0.34,4.404 4.187,7.699 8.592,7.358 C -12.514,65.705 19.379,61.463 22.471,44.788 25.279,29.645 11.221,7.629 8.373,3.369 6.489,0.549 3.124,-0.688 0,0"
             style="fill:#8c8b7e;fill-opacity:1;fill-rule:nonzero;stroke:none"
             id="path66"
             inkscape:connector-curvature="0" /></g></g></g></g></svg>